<svg width="2048" height="2048" version="1.1" xmlns="http://www.w3.org/2000/svg" desc="Created with imagetracer.js version 1.2.6" ><path fill="rgb(251,101,24)" stroke="rgb(251,101,24)" stroke-width="1" opacity="1" d="M 0 0 L 2048 0 L 2048 2048 L 0 2048 L 0 0 Z M 604 499 L 605 504 L 955 1158 L 955 1591 L 956 1591 L 1090 1591 L 1090 1167 L 1445 500 L 1295 499 L 1077 933 L 1027 1038 L 1011 1000 L 973 920 L 765 501 L 764 499 L 604 499 Z " /><path fill="rgb(253,217,199)" stroke="rgb(253,217,199)" stroke-width="1" opacity="1" d="M 604.5 499 L 763.5 499 L 765 500.5 L 763.5 500 L 604.5 500 L 604.5 499 Z " /><path fill="rgb(253,217,199)" stroke="rgb(253,217,199)" stroke-width="1" opacity="1" d="M 1295.5 499 L 1445 499.5 L 1295.5 500 L 1295.5 499 Z " /><path fill="rgb(253,217,199)" stroke="rgb(253,217,199)" stroke-width="1" opacity="1" d="M 604.5 501 L 607 504.5 L 605 503.5 L 604.5 501 Z " /><path fill="rgb(253,217,199)" stroke="rgb(253,217,199)" stroke-width="1" opacity="1" d="M 612.5 516 L 615 519.5 L 613 518.5 L 612.5 516 Z " /><path fill="rgb(253,217,199)" stroke="rgb(253,217,199)" stroke-width="1" opacity="1" d="M 1428.5 530 L 1427.5 532 L 1428.5 530 Z " /><path fill="rgb(253,217,199)" stroke="rgb(253,217,199)" stroke-width="1" opacity="1" d="M 620.5 531 L 621.5 533 L 620.5 531 Z " /><path fill="rgb(253,217,199)" stroke="rgb(253,217,199)" stroke-width="1" opacity="1" d="M 1420.5 545 L 1419.5 547 L 1420.5 545 Z " /><path fill="rgb(253,217,199)" stroke="rgb(253,217,199)" stroke-width="1" opacity="1" d="M 628.5 546 L 629.5 548 L 628.5 546 Z " /><path fill="rgb(253,217,199)" stroke="rgb(253,217,199)" stroke-width="1" opacity="1" d="M 1267.5 555 L 1267 556.5 L 1261.5 567 L 1262 565.5 L 1267.5 555 Z " /><path fill="rgb(253,217,199)" stroke="rgb(253,217,199)" stroke-width="1" opacity="1" d="M 1412.5 560 L 1411.5 562 L 1412.5 560 Z " /><path fill="rgb(253,217,199)" stroke="rgb(253,217,199)" stroke-width="1" opacity="1" d="M 636.5 561 L 637.5 563 L 636.5 561 Z " /><path fill="rgb(253,217,199)" stroke="rgb(253,217,199)" stroke-width="1" opacity="1" d="M 797.5 566 L 800 571.5 L 799 571.5 L 797.5 566 Z " /><path fill="rgb(253,217,199)" stroke="rgb(253,217,199)" stroke-width="1" opacity="1" d="M 644.5 576 L 645.5 578 L 644.5 576 Z " /><path fill="rgb(253,217,199)" stroke="rgb(253,217,199)" stroke-width="1" opacity="1" d="M 652.5 591 L 653.5 593 L 652.5 591 Z " /><path fill="rgb(253,217,199)" stroke="rgb(253,217,199)" stroke-width="1" opacity="1" d="M 1395.5 592 L 1394.5 594 L 1395.5 592 Z " /><path fill="rgb(253,217,199)" stroke="rgb(253,217,199)" stroke-width="1" opacity="1" d="M 660.5 606 L 661.5 608 L 660.5 606 Z " /><path fill="rgb(253,217,199)" stroke="rgb(253,217,199)" stroke-width="1" opacity="1" d="M 1387.5 607 L 1386.5 609 L 1387.5 607 Z " /><path fill="rgb(253,217,199)" stroke="rgb(253,217,199)" stroke-width="1" opacity="1" d="M 668.5 621 L 669.5 623 L 668.5 621 Z " /><path fill="rgb(253,217,199)" stroke="rgb(253,217,199)" stroke-width="1" opacity="1" d="M 1379.5 622 L 1378.5 624 L 1379.5 622 Z " /><path fill="rgb(253,217,199)" stroke="rgb(253,217,199)" stroke-width="1" opacity="1" d="M 675.5 634 L 678 637.5 L 676 636.5 L 675.5 634 Z " /><path fill="rgb(253,217,199)" stroke="rgb(253,217,199)" stroke-width="1" opacity="1" d="M 683.5 649 L 686 652.5 L 684 651.5 L 683.5 649 Z " /><path fill="rgb(253,217,199)" stroke="rgb(253,217,199)" stroke-width="1" opacity="1" d="M 1362.5 654 L 1361.5 656 L 1362.5 654 Z " /><path fill="rgb(253,217,199)" stroke="rgb(253,217,199)" stroke-width="1" opacity="1" d="M 691.5 664 L 694 667.5 L 692 666.5 L 691.5 664 Z " /><path fill="rgb(253,217,199)" stroke="rgb(253,217,199)" stroke-width="1" opacity="1" d="M 1354.5 669 L 1353.5 671 L 1354.5 669 Z " /><path fill="rgb(253,217,199)" stroke="rgb(253,217,199)" stroke-width="1" opacity="1" d="M 699.5 679 L 700.5 681 L 699.5 679 Z " /><path fill="rgb(253,217,199)" stroke="rgb(253,217,199)" stroke-width="1" opacity="1" d="M 1346.5 684 L 1345.5 686 L 1346.5 684 Z " /><path fill="rgb(253,217,199)" stroke="rgb(253,217,199)" stroke-width="1" opacity="1" d="M 1201.5 686 L 1201 687.5 L 1195.5 698 L 1196 696.5 L 1201.5 686 Z " /><path fill="rgb(253,217,199)" stroke="rgb(253,217,199)" stroke-width="1" opacity="1" d="M 707.5 694 L 708.5 696 L 707.5 694 Z " /><path fill="rgb(253,217,199)" stroke="rgb(253,217,199)" stroke-width="1" opacity="1" d="M 862.5 697 L 865 702.5 L 864 702.5 L 862.5 697 Z " /><path fill="rgb(253,217,199)" stroke="rgb(253,217,199)" stroke-width="1" opacity="1" d="M 715.5 709 L 716.5 711 L 715.5 709 Z " /><path fill="rgb(253,217,199)" stroke="rgb(253,217,199)" stroke-width="1" opacity="1" d="M 1329.5 716 L 1328.5 718 L 1329.5 716 Z " /><path fill="rgb(253,217,199)" stroke="rgb(253,217,199)" stroke-width="1" opacity="1" d="M 723.5 724 L 724.5 726 L 723.5 724 Z " /><path fill="rgb(253,217,199)" stroke="rgb(253,217,199)" stroke-width="1" opacity="1" d="M 1321.5 731 L 1320.5 733 L 1321.5 731 Z " /><path fill="rgb(253,217,199)" stroke="rgb(253,217,199)" stroke-width="1" opacity="1" d="M 731.5 739 L 732.5 741 L 731.5 739 Z " /><path fill="rgb(253,217,199)" stroke="rgb(253,217,199)" stroke-width="1" opacity="1" d="M 1313.5 746 L 1312.5 748 L 1313.5 746 Z " /><path fill="rgb(253,217,199)" stroke="rgb(253,217,199)" stroke-width="1" opacity="1" d="M 739.5 754 L 740.5 756 L 739.5 754 Z " /><path fill="rgb(253,217,199)" stroke="rgb(253,217,199)" stroke-width="1" opacity="1" d="M 1304.5 763 L 1303.5 765 L 1304.5 763 Z " /><path fill="rgb(253,217,199)" stroke="rgb(253,217,199)" stroke-width="1" opacity="1" d="M 747.5 769 L 748.5 771 L 747.5 769 Z " /><path fill="rgb(253,217,199)" stroke="rgb(253,217,199)" stroke-width="1" opacity="1" d="M 1296.5 778 L 1295.5 780 L 1296.5 778 Z " /><path fill="rgb(253,217,199)" stroke="rgb(253,217,199)" stroke-width="1" opacity="1" d="M 754.5 782 L 757 785.5 L 755 784.5 L 754.5 782 Z " /><path fill="rgb(253,217,199)" stroke="rgb(253,217,199)" stroke-width="1" opacity="1" d="M 1288.5 793 L 1287.5 795 L 1288.5 793 Z " /><path fill="rgb(253,217,199)" stroke="rgb(253,217,199)" stroke-width="1" opacity="1" d="M 762.5 797 L 765 800.5 L 763 799.5 L 762.5 797 Z " /><path fill="rgb(253,217,199)" stroke="rgb(253,217,199)" stroke-width="1" opacity="1" d="M 1280.5 808 L 1279.5 810 L 1280.5 808 Z " /><path fill="rgb(253,217,199)" stroke="rgb(253,217,199)" stroke-width="1" opacity="1" d="M 770.5 812 L 771.5 814 L 770.5 812 Z " /><path fill="rgb(253,217,199)" stroke="rgb(253,217,199)" stroke-width="1" opacity="1" d="M 1135.5 817 L 1135 818.5 L 1129.5 829 L 1130 827.5 L 1135.5 817 Z " /><path fill="rgb(253,217,199)" stroke="rgb(253,217,199)" stroke-width="1" opacity="1" d="M 1271.5 825 L 1270.5 827 L 1271.5 825 Z " /><path fill="rgb(253,217,199)" stroke="rgb(253,217,199)" stroke-width="1" opacity="1" d="M 778.5 827 L 779.5 829 L 778.5 827 Z " /><path fill="rgb(253,217,199)" stroke="rgb(253,217,199)" stroke-width="1" opacity="1" d="M 927.5 828 L 930 833.5 L 929 833.5 L 927.5 828 Z " /><path fill="rgb(253,217,199)" stroke="rgb(253,217,199)" stroke-width="1" opacity="1" d="M 1263.5 840 L 1262.5 842 L 1263.5 840 Z " /><path fill="rgb(253,217,199)" stroke="rgb(253,217,199)" stroke-width="1" opacity="1" d="M 786.5 842 L 787.5 844 L 786.5 842 Z " /><path fill="rgb(253,217,199)" stroke="rgb(253,217,199)" stroke-width="1" opacity="1" d="M 1255.5 855 L 1254.5 857 L 1255.5 855 Z " /><path fill="rgb(253,217,199)" stroke="rgb(253,217,199)" stroke-width="1" opacity="1" d="M 794.5 857 L 795.5 859 L 794.5 857 Z " /><path fill="rgb(253,217,199)" stroke="rgb(253,217,199)" stroke-width="1" opacity="1" d="M 1247.5 870 L 1246.5 872 L 1247.5 870 Z " /><path fill="rgb(253,217,199)" stroke="rgb(253,217,199)" stroke-width="1" opacity="1" d="M 802.5 872 L 803.5 874 L 802.5 872 Z " /><path fill="rgb(253,217,199)" stroke="rgb(253,217,199)" stroke-width="1" opacity="1" d="M 810.5 887 L 811.5 889 L 810.5 887 Z " /><path fill="rgb(253,217,199)" stroke="rgb(253,217,199)" stroke-width="1" opacity="1" d="M 1238.5 887 L 1237.5 889 L 1238.5 887 Z " /><path fill="rgb(253,217,199)" stroke="rgb(253,217,199)" stroke-width="1" opacity="1" d="M 818.5 902 L 819.5 904 L 818.5 902 Z " /><path fill="rgb(253,217,199)" stroke="rgb(253,217,199)" stroke-width="1" opacity="1" d="M 1230.5 902 L 1229.5 904 L 1230.5 902 Z " /><path fill="rgb(253,217,199)" stroke="rgb(253,217,199)" stroke-width="1" opacity="1" d="M 826.5 917 L 827.5 919 L 826.5 917 Z " /><path fill="rgb(253,217,199)" stroke="rgb(253,217,199)" stroke-width="1" opacity="1" d="M 1222.5 917 L 1221.5 919 L 1222.5 917 Z " /><path fill="rgb(253,217,199)" stroke="rgb(253,217,199)" stroke-width="1" opacity="1" d="M 833.5 930 L 836 933.5 L 834 932.5 L 833.5 930 Z " /><path fill="rgb(253,217,199)" stroke="rgb(253,217,199)" stroke-width="1" opacity="1" d="M 841.5 945 L 842.5 947 L 841.5 945 Z " /><path fill="rgb(253,217,199)" stroke="rgb(253,217,199)" stroke-width="1" opacity="1" d="M 1205.5 949 L 1204.5 951 L 1205.5 949 Z " /><path fill="rgb(253,217,199)" stroke="rgb(253,217,199)" stroke-width="1" opacity="1" d="M 1065.5 957 L 1066 958.5 L 1064.5 961 L 1064 959.5 L 1065.5 957 Z " /><path fill="rgb(253,217,199)" stroke="rgb(253,217,199)" stroke-width="1" opacity="1" d="M 849.5 960 L 850.5 962 L 849.5 960 Z " /><path fill="rgb(253,217,199)" stroke="rgb(253,217,199)" stroke-width="1" opacity="1" d="M 1197.5 964 L 1196.5 966 L 1197.5 964 Z " /><path fill="rgb(253,217,199)" stroke="rgb(253,217,199)" stroke-width="1" opacity="1" d="M 857.5 975 L 858.5 977 L 857.5 975 Z " /><path fill="rgb(253,217,199)" stroke="rgb(253,217,199)" stroke-width="1" opacity="1" d="M 1189.5 979 L 1188.5 981 L 1189.5 979 Z " /><path fill="rgb(253,217,199)" stroke="rgb(253,217,199)" stroke-width="1" opacity="1" d="M 865.5 990 L 866.5 992 L 865.5 990 Z " /><path fill="rgb(253,217,199)" stroke="rgb(253,217,199)" stroke-width="1" opacity="1" d="M 1181.5 994 L 1180.5 996 L 1181.5 994 Z " /><path fill="rgb(253,217,199)" stroke="rgb(253,217,199)" stroke-width="1" opacity="1" d="M 873.5 1005 L 874.5 1007 L 873.5 1005 Z " /><path fill="rgb(253,217,199)" stroke="rgb(253,217,199)" stroke-width="1" opacity="1" d="M 1172.5 1011 L 1171.5 1013 L 1172.5 1011 Z " /><path fill="rgb(253,217,199)" stroke="rgb(253,217,199)" stroke-width="1" opacity="1" d="M 881.5 1020 L 882.5 1022 L 881.5 1020 Z " /><path fill="rgb(253,217,199)" stroke="rgb(253,217,199)" stroke-width="1" opacity="1" d="M 1164.5 1026 L 1163.5 1028 L 1164.5 1026 Z " /><path fill="rgb(253,217,199)" stroke="rgb(253,217,199)" stroke-width="1" opacity="1" d="M 889.5 1035 L 890.5 1037 L 889.5 1035 Z " /><path fill="rgb(253,217,199)" stroke="rgb(253,217,199)" stroke-width="1" opacity="1" d="M 1027.5 1036 L 1028 1037.5 L 1026 1038.5 L 1027.5 1036 Z " /><path fill="rgb(253,217,199)" stroke="rgb(253,217,199)" stroke-width="1" opacity="1" d="M 1156.5 1041 L 1155.5 1043 L 1156.5 1041 Z " /><path fill="rgb(253,217,199)" stroke="rgb(253,217,199)" stroke-width="1" opacity="1" d="M 896.5 1048 L 899 1051.5 L 897 1050.5 L 896.5 1048 Z " /><path fill="rgb(253,217,199)" stroke="rgb(253,217,199)" stroke-width="1" opacity="1" d="M 904.5 1063 L 907 1066.5 L 905 1065.5 L 904.5 1063 Z " /><path fill="rgb(253,217,199)" stroke="rgb(253,217,199)" stroke-width="1" opacity="1" d="M 1139.5 1073 L 1138.5 1075 L 1139.5 1073 Z " /><path fill="rgb(253,217,199)" stroke="rgb(253,217,199)" stroke-width="1" opacity="1" d="M 912.5 1078 L 915 1081.5 L 913 1080.5 L 912.5 1078 Z " /><path fill="rgb(253,217,199)" stroke="rgb(253,217,199)" stroke-width="1" opacity="1" d="M 1131.5 1088 L 1130.5 1090 L 1131.5 1088 Z " /><path fill="rgb(253,217,199)" stroke="rgb(253,217,199)" stroke-width="1" opacity="1" d="M 920.5 1093 L 921.5 1095 L 920.5 1093 Z " /><path fill="rgb(253,217,199)" stroke="rgb(253,217,199)" stroke-width="1" opacity="1" d="M 1123.5 1103 L 1122.5 1105 L 1123.5 1103 Z " /><path fill="rgb(253,217,199)" stroke="rgb(253,217,199)" stroke-width="1" opacity="1" d="M 928.5 1108 L 929.5 1110 L 928.5 1108 Z " /><path fill="rgb(253,217,199)" stroke="rgb(253,217,199)" stroke-width="1" opacity="1" d="M 936.5 1123 L 937.5 1125 L 936.5 1123 Z " /><path fill="rgb(253,217,199)" stroke="rgb(253,217,199)" stroke-width="1" opacity="1" d="M 1106.5 1135 L 1105.5 1137 L 1106.5 1135 Z " /><path fill="rgb(253,217,199)" stroke="rgb(253,217,199)" stroke-width="1" opacity="1" d="M 944.5 1138 L 945.5 1140 L 944.5 1138 Z " /><path fill="rgb(253,217,199)" stroke="rgb(253,217,199)" stroke-width="1" opacity="1" d="M 1098.5 1150 L 1097.5 1152 L 1098.5 1150 Z " /><path fill="rgb(253,217,199)" stroke="rgb(253,217,199)" stroke-width="1" opacity="1" d="M 952.5 1153 L 953.5 1155 L 952.5 1153 Z " /><path fill="rgb(253,217,199)" stroke="rgb(253,217,199)" stroke-width="1" opacity="1" d="M 955.5 1590 L 1090 1590.5 L 955.5 1591 L 955.5 1590 Z " /><path fill="rgb(255,255,255)" stroke="rgb(255,255,255)" stroke-width="1" opacity="1" d="M 604.5 500 L 763.5 500 L 765 501.5 L 972 918.5 L 1010 998.5 L 1026.5 1039 L 1078 931.5 L 1295 500 L 1444 500.5 L 1090 1165.5 L 1090 1590 L 955.5 1590 L 955 1589.5 L 955 1156.5 L 604.5 500 Z " /></svg>