<svg xmlns="http://www.w3.org/2000/svg" xmlns:xlink="http://www.w3.org/1999/xlink" version="1.1" x="0" y="0" viewBox="0 0 220 220" width="220" height="220">
<rect x="0" y="0" width="220" fill="#FFFFFF" height="220" stroke="none"></rect>
<g transform="translate(10, 10)">
<g shape-rendering="crispEdges" fill="#222222">
<rect x="62.07275862068965" y="0.01" width="6.895862068965517" height="6.895862068965517" rx="0"></rect>
<rect x="68.96862068965517" y="0.01" width="6.895862068965517" height="6.895862068965517" rx="0"></rect>
<rect x="75.8644827586207" y="0.01" width="6.895862068965517" height="6.895862068965517" rx="0"></rect>
<rect x="82.76034482758621" y="0.01" width="6.895862068965517" height="6.895862068965517" rx="0"></rect>
<rect x="124.1355172413793" y="0.01" width="6.895862068965517" height="6.895862068965517" rx="0"></rect>
<rect x="131.03137931034482" y="0.01" width="6.895862068965517" height="6.895862068965517" rx="0"></rect>
<rect x="62.07275862068965" y="6.905862068965517" width="6.895862068965517" height="6.895862068965517" rx="0"></rect>
<rect x="68.96862068965517" y="6.905862068965517" width="6.895862068965517" height="6.895862068965517" rx="0"></rect>
<rect x="137.92724137931032" y="6.905862068965517" width="6.895862068965517" height="6.895862068965517" rx="0"></rect>
<rect x="55.176896551724134" y="13.801724137931034" width="6.895862068965517" height="6.895862068965517" rx="0"></rect>
<rect x="62.07275862068965" y="13.801724137931034" width="6.895862068965517" height="6.895862068965517" rx="0"></rect>
<rect x="82.76034482758621" y="13.801724137931034" width="6.895862068965517" height="6.895862068965517" rx="0"></rect>
<rect x="117.23965517241379" y="13.801724137931034" width="6.895862068965517" height="6.895862068965517" rx="0"></rect>
<rect x="124.1355172413793" y="13.801724137931034" width="6.895862068965517" height="6.895862068965517" rx="0"></rect>
<rect x="131.03137931034482" y="13.801724137931034" width="6.895862068965517" height="6.895862068965517" rx="0"></rect>
<rect x="137.92724137931032" y="13.801724137931034" width="6.895862068965517" height="6.895862068965517" rx="0"></rect>
<rect x="68.96862068965517" y="20.697586206896553" width="6.895862068965517" height="6.895862068965517" rx="0"></rect>
<rect x="75.8644827586207" y="20.697586206896553" width="6.895862068965517" height="6.895862068965517" rx="0"></rect>
<rect x="89.65620689655172" y="20.697586206896553" width="6.895862068965517" height="6.895862068965517" rx="0"></rect>
<rect x="96.55206896551725" y="20.697586206896553" width="6.895862068965517" height="6.895862068965517" rx="0"></rect>
<rect x="110.34379310344828" y="20.697586206896553" width="6.895862068965517" height="6.895862068965517" rx="0"></rect>
<rect x="124.1355172413793" y="20.697586206896553" width="6.895862068965517" height="6.895862068965517" rx="0"></rect>
<rect x="131.03137931034482" y="20.697586206896553" width="6.895862068965517" height="6.895862068965517" rx="0"></rect>
<rect x="55.176896551724134" y="27.59344827586207" width="6.895862068965517" height="6.895862068965517" rx="0"></rect>
<rect x="62.07275862068965" y="27.59344827586207" width="6.895862068965517" height="6.895862068965517" rx="0"></rect>
<rect x="75.8644827586207" y="27.59344827586207" width="6.895862068965517" height="6.895862068965517" rx="0"></rect>
<rect x="89.65620689655172" y="27.59344827586207" width="6.895862068965517" height="6.895862068965517" rx="0"></rect>
<rect x="103.44793103448276" y="27.59344827586207" width="6.895862068965517" height="6.895862068965517" rx="0"></rect>
<rect x="110.34379310344828" y="27.59344827586207" width="6.895862068965517" height="6.895862068965517" rx="0"></rect>
<rect x="124.1355172413793" y="27.59344827586207" width="6.895862068965517" height="6.895862068965517" rx="0"></rect>
<rect x="55.176896551724134" y="34.48931034482758" width="6.895862068965517" height="6.895862068965517" rx="0"></rect>
<rect x="68.96862068965517" y="34.48931034482758" width="6.895862068965517" height="6.895862068965517" rx="0"></rect>
<rect x="75.8644827586207" y="34.48931034482758" width="6.895862068965517" height="6.895862068965517" rx="0"></rect>
<rect x="89.65620689655172" y="34.48931034482758" width="6.895862068965517" height="6.895862068965517" rx="0"></rect>
<rect x="96.55206896551725" y="34.48931034482758" width="6.895862068965517" height="6.895862068965517" rx="0"></rect>
<rect x="124.1355172413793" y="34.48931034482758" width="6.895862068965517" height="6.895862068965517" rx="0"></rect>
<rect x="131.03137931034482" y="34.48931034482758" width="6.895862068965517" height="6.895862068965517" rx="0"></rect>
<rect x="55.176896551724134" y="41.3851724137931" width="6.895862068965517" height="6.895862068965517" rx="0"></rect>
<rect x="68.96862068965517" y="41.3851724137931" width="6.895862068965517" height="6.895862068965517" rx="0"></rect>
<rect x="82.76034482758621" y="41.3851724137931" width="6.895862068965517" height="6.895862068965517" rx="0"></rect>
<rect x="96.55206896551725" y="41.3851724137931" width="6.895862068965517" height="6.895862068965517" rx="0"></rect>
<rect x="110.34379310344828" y="41.3851724137931" width="6.895862068965517" height="6.895862068965517" rx="0"></rect>
<rect x="124.1355172413793" y="41.3851724137931" width="6.895862068965517" height="6.895862068965517" rx="0"></rect>
<rect x="137.92724137931032" y="41.3851724137931" width="6.895862068965517" height="6.895862068965517" rx="0"></rect>
<rect x="62.07275862068965" y="48.28103448275862" width="6.895862068965517" height="6.895862068965517" rx="0"></rect>
<rect x="68.96862068965517" y="48.28103448275862" width="6.895862068965517" height="6.895862068965517" rx="0"></rect>
<rect x="75.8644827586207" y="48.28103448275862" width="6.895862068965517" height="6.895862068965517" rx="0"></rect>
<rect x="82.76034482758621" y="48.28103448275862" width="6.895862068965517" height="6.895862068965517" rx="0"></rect>
<rect x="117.23965517241379" y="48.28103448275862" width="6.895862068965517" height="6.895862068965517" rx="0"></rect>
<rect x="124.1355172413793" y="48.28103448275862" width="6.895862068965517" height="6.895862068965517" rx="0"></rect>
<rect x="137.92724137931032" y="48.28103448275862" width="6.895862068965517" height="6.895862068965517" rx="0"></rect>
<rect x="6.905862068965517" y="55.176896551724134" width="6.895862068965517" height="6.895862068965517" rx="0"></rect>
<rect x="27.59344827586207" y="55.176896551724134" width="6.895862068965517" height="6.895862068965517" rx="0"></rect>
<rect x="41.3851724137931" y="55.176896551724134" width="6.895862068965517" height="6.895862068965517" rx="0"></rect>
<rect x="55.176896551724134" y="55.176896551724134" width="6.895862068965517" height="6.895862068965517" rx="0"></rect>
<rect x="75.8644827586207" y="55.176896551724134" width="6.895862068965517" height="6.895862068965517" rx="0"></rect>
<rect x="82.76034482758621" y="55.176896551724134" width="6.895862068965517" height="6.895862068965517" rx="0"></rect>
<rect x="89.65620689655172" y="55.176896551724134" width="6.895862068965517" height="6.895862068965517" rx="0"></rect>
<rect x="96.55206896551725" y="55.176896551724134" width="6.895862068965517" height="6.895862068965517" rx="0"></rect>
<rect x="110.34379310344828" y="55.176896551724134" width="6.895862068965517" height="6.895862068965517" rx="0"></rect>
<rect x="124.1355172413793" y="55.176896551724134" width="6.895862068965517" height="6.895862068965517" rx="0"></rect>
<rect x="131.03137931034482" y="55.176896551724134" width="6.895862068965517" height="6.895862068965517" rx="0"></rect>
<rect x="144.82310344827584" y="55.176896551724134" width="6.895862068965517" height="6.895862068965517" rx="0"></rect>
<rect x="158.61482758620687" y="55.176896551724134" width="6.895862068965517" height="6.895862068965517" rx="0"></rect>
<rect x="165.5106896551724" y="55.176896551724134" width="6.895862068965517" height="6.895862068965517" rx="0"></rect>
<rect x="179.30241379310343" y="55.176896551724134" width="6.895862068965517" height="6.895862068965517" rx="0"></rect>
<rect x="0.01" y="62.07275862068965" width="6.895862068965517" height="6.895862068965517" rx="0"></rect>
<rect x="6.905862068965517" y="62.07275862068965" width="6.895862068965517" height="6.895862068965517" rx="0"></rect>
<rect x="13.801724137931034" y="62.07275862068965" width="6.895862068965517" height="6.895862068965517" rx="0"></rect>
<rect x="27.59344827586207" y="62.07275862068965" width="6.895862068965517" height="6.895862068965517" rx="0"></rect>
<rect x="55.176896551724134" y="62.07275862068965" width="6.895862068965517" height="6.895862068965517" rx="0"></rect>
<rect x="62.07275862068965" y="62.07275862068965" width="6.895862068965517" height="6.895862068965517" rx="0"></rect>
<rect x="75.8644827586207" y="62.07275862068965" width="6.895862068965517" height="6.895862068965517" rx="0"></rect>
<rect x="82.76034482758621" y="62.07275862068965" width="6.895862068965517" height="6.895862068965517" rx="0"></rect>
<rect x="110.34379310344828" y="62.07275862068965" width="6.895862068965517" height="6.895862068965517" rx="0"></rect>
<rect x="117.23965517241379" y="62.07275862068965" width="6.895862068965517" height="6.895862068965517" rx="0"></rect>
<rect x="131.03137931034482" y="62.07275862068965" width="6.895862068965517" height="6.895862068965517" rx="0"></rect>
<rect x="137.92724137931032" y="62.07275862068965" width="6.895862068965517" height="6.895862068965517" rx="0"></rect>
<rect x="165.5106896551724" y="62.07275862068965" width="6.895862068965517" height="6.895862068965517" rx="0"></rect>
<rect x="172.40655172413793" y="62.07275862068965" width="6.895862068965517" height="6.895862068965517" rx="0"></rect>
<rect x="186.19827586206895" y="62.07275862068965" width="6.895862068965517" height="6.895862068965517" rx="0"></rect>
<rect x="193.09413793103448" y="62.07275862068965" width="6.895862068965517" height="6.895862068965517" rx="0"></rect>
<rect x="6.905862068965517" y="68.96862068965517" width="6.895862068965517" height="6.895862068965517" rx="0"></rect>
<rect x="13.801724137931034" y="68.96862068965517" width="6.895862068965517" height="6.895862068965517" rx="0"></rect>
<rect x="20.697586206896553" y="68.96862068965517" width="6.895862068965517" height="6.895862068965517" rx="0"></rect>
<rect x="27.59344827586207" y="68.96862068965517" width="6.895862068965517" height="6.895862068965517" rx="0"></rect>
<rect x="41.3851724137931" y="68.96862068965517" width="6.895862068965517" height="6.895862068965517" rx="0"></rect>
<rect x="62.07275862068965" y="68.96862068965517" width="6.895862068965517" height="6.895862068965517" rx="0"></rect>
<rect x="68.96862068965517" y="68.96862068965517" width="6.895862068965517" height="6.895862068965517" rx="0"></rect>
<rect x="96.55206896551725" y="68.96862068965517" width="6.895862068965517" height="6.895862068965517" rx="0"></rect>
<rect x="110.34379310344828" y="68.96862068965517" width="6.895862068965517" height="6.895862068965517" rx="0"></rect>
<rect x="117.23965517241379" y="68.96862068965517" width="6.895862068965517" height="6.895862068965517" rx="0"></rect>
<rect x="124.1355172413793" y="68.96862068965517" width="6.895862068965517" height="6.895862068965517" rx="0"></rect>
<rect x="137.92724137931032" y="68.96862068965517" width="6.895862068965517" height="6.895862068965517" rx="0"></rect>
<rect x="144.82310344827584" y="68.96862068965517" width="6.895862068965517" height="6.895862068965517" rx="0"></rect>
<rect x="179.30241379310343" y="68.96862068965517" width="6.895862068965517" height="6.895862068965517" rx="0"></rect>
<rect x="193.09413793103448" y="68.96862068965517" width="6.895862068965517" height="6.895862068965517" rx="0"></rect>
<rect x="13.801724137931034" y="75.8644827586207" width="6.895862068965517" height="6.895862068965517" rx="0"></rect>
<rect x="20.697586206896553" y="75.8644827586207" width="6.895862068965517" height="6.895862068965517" rx="0"></rect>
<rect x="34.48931034482758" y="75.8644827586207" width="6.895862068965517" height="6.895862068965517" rx="0"></rect>
<rect x="48.28103448275862" y="75.8644827586207" width="6.895862068965517" height="6.895862068965517" rx="0"></rect>
<rect x="55.176896551724134" y="75.8644827586207" width="6.895862068965517" height="6.895862068965517" rx="0"></rect>
<rect x="62.07275862068965" y="75.8644827586207" width="6.895862068965517" height="6.895862068965517" rx="0"></rect>
<rect x="68.96862068965517" y="75.8644827586207" width="6.895862068965517" height="6.895862068965517" rx="0"></rect>
<rect x="75.8644827586207" y="75.8644827586207" width="6.895862068965517" height="6.895862068965517" rx="0"></rect>
<rect x="82.76034482758621" y="75.8644827586207" width="6.895862068965517" height="6.895862068965517" rx="0"></rect>
<rect x="103.44793103448276" y="75.8644827586207" width="6.895862068965517" height="6.895862068965517" rx="0"></rect>
<rect x="110.34379310344828" y="75.8644827586207" width="6.895862068965517" height="6.895862068965517" rx="0"></rect>
<rect x="117.23965517241379" y="75.8644827586207" width="6.895862068965517" height="6.895862068965517" rx="0"></rect>
<rect x="144.82310344827584" y="75.8644827586207" width="6.895862068965517" height="6.895862068965517" rx="0"></rect>
<rect x="165.5106896551724" y="75.8644827586207" width="6.895862068965517" height="6.895862068965517" rx="0"></rect>
<rect x="186.19827586206895" y="75.8644827586207" width="6.895862068965517" height="6.895862068965517" rx="0"></rect>
<rect x="193.09413793103448" y="75.8644827586207" width="6.895862068965517" height="6.895862068965517" rx="0"></rect>
<rect x="13.801724137931034" y="82.76034482758621" width="6.895862068965517" height="6.895862068965517" rx="0"></rect>
<rect x="20.697586206896553" y="82.76034482758621" width="6.895862068965517" height="6.895862068965517" rx="0"></rect>
<rect x="27.59344827586207" y="82.76034482758621" width="6.895862068965517" height="6.895862068965517" rx="0"></rect>
<rect x="34.48931034482758" y="82.76034482758621" width="6.895862068965517" height="6.895862068965517" rx="0"></rect>
<rect x="41.3851724137931" y="82.76034482758621" width="6.895862068965517" height="6.895862068965517" rx="0"></rect>
<rect x="48.28103448275862" y="82.76034482758621" width="6.895862068965517" height="6.895862068965517" rx="0"></rect>
<rect x="68.96862068965517" y="82.76034482758621" width="6.895862068965517" height="6.895862068965517" rx="0"></rect>
<rect x="75.8644827586207" y="82.76034482758621" width="6.895862068965517" height="6.895862068965517" rx="0"></rect>
<rect x="117.23965517241379" y="82.76034482758621" width="6.895862068965517" height="6.895862068965517" rx="0"></rect>
<rect x="131.03137931034482" y="82.76034482758621" width="6.895862068965517" height="6.895862068965517" rx="0"></rect>
<rect x="137.92724137931032" y="82.76034482758621" width="6.895862068965517" height="6.895862068965517" rx="0"></rect>
<rect x="158.61482758620687" y="82.76034482758621" width="6.895862068965517" height="6.895862068965517" rx="0"></rect>
<rect x="172.40655172413793" y="82.76034482758621" width="6.895862068965517" height="6.895862068965517" rx="0"></rect>
<rect x="193.09413793103448" y="82.76034482758621" width="6.895862068965517" height="6.895862068965517" rx="0"></rect>
<rect x="6.905862068965517" y="89.65620689655172" width="6.895862068965517" height="6.895862068965517" rx="0"></rect>
<rect x="13.801724137931034" y="89.65620689655172" width="6.895862068965517" height="6.895862068965517" rx="0"></rect>
<rect x="20.697586206896553" y="89.65620689655172" width="6.895862068965517" height="6.895862068965517" rx="0"></rect>
<rect x="27.59344827586207" y="89.65620689655172" width="6.895862068965517" height="6.895862068965517" rx="0"></rect>
<rect x="34.48931034482758" y="89.65620689655172" width="6.895862068965517" height="6.895862068965517" rx="0"></rect>
<rect x="68.96862068965517" y="89.65620689655172" width="6.895862068965517" height="6.895862068965517" rx="0"></rect>
<rect x="82.76034482758621" y="89.65620689655172" width="6.895862068965517" height="6.895862068965517" rx="0"></rect>
<rect x="89.65620689655172" y="89.65620689655172" width="6.895862068965517" height="6.895862068965517" rx="0"></rect>
<rect x="96.55206896551725" y="89.65620689655172" width="6.895862068965517" height="6.895862068965517" rx="0"></rect>
<rect x="103.44793103448276" y="89.65620689655172" width="6.895862068965517" height="6.895862068965517" rx="0"></rect>
<rect x="110.34379310344828" y="89.65620689655172" width="6.895862068965517" height="6.895862068965517" rx="0"></rect>
<rect x="117.23965517241379" y="89.65620689655172" width="6.895862068965517" height="6.895862068965517" rx="0"></rect>
<rect x="124.1355172413793" y="89.65620689655172" width="6.895862068965517" height="6.895862068965517" rx="0"></rect>
<rect x="151.71896551724137" y="89.65620689655172" width="6.895862068965517" height="6.895862068965517" rx="0"></rect>
<rect x="165.5106896551724" y="89.65620689655172" width="6.895862068965517" height="6.895862068965517" rx="0"></rect>
<rect x="179.30241379310343" y="89.65620689655172" width="6.895862068965517" height="6.895862068965517" rx="0"></rect>
<rect x="186.19827586206895" y="89.65620689655172" width="6.895862068965517" height="6.895862068965517" rx="0"></rect>
<rect x="193.09413793103448" y="89.65620689655172" width="6.895862068965517" height="6.895862068965517" rx="0"></rect>
<rect x="6.905862068965517" y="96.55206896551725" width="6.895862068965517" height="6.895862068965517" rx="0"></rect>
<rect x="20.697586206896553" y="96.55206896551725" width="6.895862068965517" height="6.895862068965517" rx="0"></rect>
<rect x="27.59344827586207" y="96.55206896551725" width="6.895862068965517" height="6.895862068965517" rx="0"></rect>
<rect x="41.3851724137931" y="96.55206896551725" width="6.895862068965517" height="6.895862068965517" rx="0"></rect>
<rect x="48.28103448275862" y="96.55206896551725" width="6.895862068965517" height="6.895862068965517" rx="0"></rect>
<rect x="62.07275862068965" y="96.55206896551725" width="6.895862068965517" height="6.895862068965517" rx="0"></rect>
<rect x="68.96862068965517" y="96.55206896551725" width="6.895862068965517" height="6.895862068965517" rx="0"></rect>
<rect x="96.55206896551725" y="96.55206896551725" width="6.895862068965517" height="6.895862068965517" rx="0"></rect>
<rect x="103.44793103448276" y="96.55206896551725" width="6.895862068965517" height="6.895862068965517" rx="0"></rect>
<rect x="124.1355172413793" y="96.55206896551725" width="6.895862068965517" height="6.895862068965517" rx="0"></rect>
<rect x="137.92724137931032" y="96.55206896551725" width="6.895862068965517" height="6.895862068965517" rx="0"></rect>
<rect x="165.5106896551724" y="96.55206896551725" width="6.895862068965517" height="6.895862068965517" rx="0"></rect>
<rect x="193.09413793103448" y="96.55206896551725" width="6.895862068965517" height="6.895862068965517" rx="0"></rect>
<rect x="13.801724137931034" y="103.44793103448276" width="6.895862068965517" height="6.895862068965517" rx="0"></rect>
<rect x="20.697586206896553" y="103.44793103448276" width="6.895862068965517" height="6.895862068965517" rx="0"></rect>
<rect x="62.07275862068965" y="103.44793103448276" width="6.895862068965517" height="6.895862068965517" rx="0"></rect>
<rect x="68.96862068965517" y="103.44793103448276" width="6.895862068965517" height="6.895862068965517" rx="0"></rect>
<rect x="82.76034482758621" y="103.44793103448276" width="6.895862068965517" height="6.895862068965517" rx="0"></rect>
<rect x="96.55206896551725" y="103.44793103448276" width="6.895862068965517" height="6.895862068965517" rx="0"></rect>
<rect x="131.03137931034482" y="103.44793103448276" width="6.895862068965517" height="6.895862068965517" rx="0"></rect>
<rect x="144.82310344827584" y="103.44793103448276" width="6.895862068965517" height="6.895862068965517" rx="0"></rect>
<rect x="158.61482758620687" y="103.44793103448276" width="6.895862068965517" height="6.895862068965517" rx="0"></rect>
<rect x="172.40655172413793" y="103.44793103448276" width="6.895862068965517" height="6.895862068965517" rx="0"></rect>
<rect x="186.19827586206895" y="103.44793103448276" width="6.895862068965517" height="6.895862068965517" rx="0"></rect>
<rect x="0.01" y="110.34379310344828" width="6.895862068965517" height="6.895862068965517" rx="0"></rect>
<rect x="6.905862068965517" y="110.34379310344828" width="6.895862068965517" height="6.895862068965517" rx="0"></rect>
<rect x="13.801724137931034" y="110.34379310344828" width="6.895862068965517" height="6.895862068965517" rx="0"></rect>
<rect x="27.59344827586207" y="110.34379310344828" width="6.895862068965517" height="6.895862068965517" rx="0"></rect>
<rect x="34.48931034482758" y="110.34379310344828" width="6.895862068965517" height="6.895862068965517" rx="0"></rect>
<rect x="41.3851724137931" y="110.34379310344828" width="6.895862068965517" height="6.895862068965517" rx="0"></rect>
<rect x="48.28103448275862" y="110.34379310344828" width="6.895862068965517" height="6.895862068965517" rx="0"></rect>
<rect x="62.07275862068965" y="110.34379310344828" width="6.895862068965517" height="6.895862068965517" rx="0"></rect>
<rect x="75.8644827586207" y="110.34379310344828" width="6.895862068965517" height="6.895862068965517" rx="0"></rect>
<rect x="82.76034482758621" y="110.34379310344828" width="6.895862068965517" height="6.895862068965517" rx="0"></rect>
<rect x="110.34379310344828" y="110.34379310344828" width="6.895862068965517" height="6.895862068965517" rx="0"></rect>
<rect x="137.92724137931032" y="110.34379310344828" width="6.895862068965517" height="6.895862068965517" rx="0"></rect>
<rect x="144.82310344827584" y="110.34379310344828" width="6.895862068965517" height="6.895862068965517" rx="0"></rect>
<rect x="151.71896551724137" y="110.34379310344828" width="6.895862068965517" height="6.895862068965517" rx="0"></rect>
<rect x="186.19827586206895" y="110.34379310344828" width="6.895862068965517" height="6.895862068965517" rx="0"></rect>
<rect x="193.09413793103448" y="110.34379310344828" width="6.895862068965517" height="6.895862068965517" rx="0"></rect>
<rect x="0.01" y="117.23965517241379" width="6.895862068965517" height="6.895862068965517" rx="0"></rect>
<rect x="6.905862068965517" y="117.23965517241379" width="6.895862068965517" height="6.895862068965517" rx="0"></rect>
<rect x="13.801724137931034" y="117.23965517241379" width="6.895862068965517" height="6.895862068965517" rx="0"></rect>
<rect x="20.697586206896553" y="117.23965517241379" width="6.895862068965517" height="6.895862068965517" rx="0"></rect>
<rect x="27.59344827586207" y="117.23965517241379" width="6.895862068965517" height="6.895862068965517" rx="0"></rect>
<rect x="48.28103448275862" y="117.23965517241379" width="6.895862068965517" height="6.895862068965517" rx="0"></rect>
<rect x="55.176896551724134" y="117.23965517241379" width="6.895862068965517" height="6.895862068965517" rx="0"></rect>
<rect x="62.07275862068965" y="117.23965517241379" width="6.895862068965517" height="6.895862068965517" rx="0"></rect>
<rect x="68.96862068965517" y="117.23965517241379" width="6.895862068965517" height="6.895862068965517" rx="0"></rect>
<rect x="82.76034482758621" y="117.23965517241379" width="6.895862068965517" height="6.895862068965517" rx="0"></rect>
<rect x="96.55206896551725" y="117.23965517241379" width="6.895862068965517" height="6.895862068965517" rx="0"></rect>
<rect x="117.23965517241379" y="117.23965517241379" width="6.895862068965517" height="6.895862068965517" rx="0"></rect>
<rect x="124.1355172413793" y="117.23965517241379" width="6.895862068965517" height="6.895862068965517" rx="0"></rect>
<rect x="131.03137931034482" y="117.23965517241379" width="6.895862068965517" height="6.895862068965517" rx="0"></rect>
<rect x="158.61482758620687" y="117.23965517241379" width="6.895862068965517" height="6.895862068965517" rx="0"></rect>
<rect x="165.5106896551724" y="117.23965517241379" width="6.895862068965517" height="6.895862068965517" rx="0"></rect>
<rect x="193.09413793103448" y="117.23965517241379" width="6.895862068965517" height="6.895862068965517" rx="0"></rect>
<rect x="13.801724137931034" y="124.1355172413793" width="6.895862068965517" height="6.895862068965517" rx="0"></rect>
<rect x="20.697586206896553" y="124.1355172413793" width="6.895862068965517" height="6.895862068965517" rx="0"></rect>
<rect x="34.48931034482758" y="124.1355172413793" width="6.895862068965517" height="6.895862068965517" rx="0"></rect>
<rect x="41.3851724137931" y="124.1355172413793" width="6.895862068965517" height="6.895862068965517" rx="0"></rect>
<rect x="55.176896551724134" y="124.1355172413793" width="6.895862068965517" height="6.895862068965517" rx="0"></rect>
<rect x="68.96862068965517" y="124.1355172413793" width="6.895862068965517" height="6.895862068965517" rx="0"></rect>
<rect x="75.8644827586207" y="124.1355172413793" width="6.895862068965517" height="6.895862068965517" rx="0"></rect>
<rect x="82.76034482758621" y="124.1355172413793" width="6.895862068965517" height="6.895862068965517" rx="0"></rect>
<rect x="96.55206896551725" y="124.1355172413793" width="6.895862068965517" height="6.895862068965517" rx="0"></rect>
<rect x="103.44793103448276" y="124.1355172413793" width="6.895862068965517" height="6.895862068965517" rx="0"></rect>
<rect x="117.23965517241379" y="124.1355172413793" width="6.895862068965517" height="6.895862068965517" rx="0"></rect>
<rect x="124.1355172413793" y="124.1355172413793" width="6.895862068965517" height="6.895862068965517" rx="0"></rect>
<rect x="131.03137931034482" y="124.1355172413793" width="6.895862068965517" height="6.895862068965517" rx="0"></rect>
<rect x="165.5106896551724" y="124.1355172413793" width="6.895862068965517" height="6.895862068965517" rx="0"></rect>
<rect x="179.30241379310343" y="124.1355172413793" width="6.895862068965517" height="6.895862068965517" rx="0"></rect>
<rect x="193.09413793103448" y="124.1355172413793" width="6.895862068965517" height="6.895862068965517" rx="0"></rect>
<rect x="27.59344827586207" y="131.03137931034482" width="6.895862068965517" height="6.895862068965517" rx="0"></rect>
<rect x="34.48931034482758" y="131.03137931034482" width="6.895862068965517" height="6.895862068965517" rx="0"></rect>
<rect x="48.28103448275862" y="131.03137931034482" width="6.895862068965517" height="6.895862068965517" rx="0"></rect>
<rect x="55.176896551724134" y="131.03137931034482" width="6.895862068965517" height="6.895862068965517" rx="0"></rect>
<rect x="75.8644827586207" y="131.03137931034482" width="6.895862068965517" height="6.895862068965517" rx="0"></rect>
<rect x="82.76034482758621" y="131.03137931034482" width="6.895862068965517" height="6.895862068965517" rx="0"></rect>
<rect x="96.55206896551725" y="131.03137931034482" width="6.895862068965517" height="6.895862068965517" rx="0"></rect>
<rect x="103.44793103448276" y="131.03137931034482" width="6.895862068965517" height="6.895862068965517" rx="0"></rect>
<rect x="110.34379310344828" y="131.03137931034482" width="6.895862068965517" height="6.895862068965517" rx="0"></rect>
<rect x="117.23965517241379" y="131.03137931034482" width="6.895862068965517" height="6.895862068965517" rx="0"></rect>
<rect x="131.03137931034482" y="131.03137931034482" width="6.895862068965517" height="6.895862068965517" rx="0"></rect>
<rect x="137.92724137931032" y="131.03137931034482" width="6.895862068965517" height="6.895862068965517" rx="0"></rect>
<rect x="165.5106896551724" y="131.03137931034482" width="6.895862068965517" height="6.895862068965517" rx="0"></rect>
<rect x="172.40655172413793" y="131.03137931034482" width="6.895862068965517" height="6.895862068965517" rx="0"></rect>
<rect x="186.19827586206895" y="131.03137931034482" width="6.895862068965517" height="6.895862068965517" rx="0"></rect>
<rect x="0.01" y="137.92724137931032" width="6.895862068965517" height="6.895862068965517" rx="0"></rect>
<rect x="6.905862068965517" y="137.92724137931032" width="6.895862068965517" height="6.895862068965517" rx="0"></rect>
<rect x="13.801724137931034" y="137.92724137931032" width="6.895862068965517" height="6.895862068965517" rx="0"></rect>
<rect x="20.697586206896553" y="137.92724137931032" width="6.895862068965517" height="6.895862068965517" rx="0"></rect>
<rect x="27.59344827586207" y="137.92724137931032" width="6.895862068965517" height="6.895862068965517" rx="0"></rect>
<rect x="34.48931034482758" y="137.92724137931032" width="6.895862068965517" height="6.895862068965517" rx="0"></rect>
<rect x="41.3851724137931" y="137.92724137931032" width="6.895862068965517" height="6.895862068965517" rx="0"></rect>
<rect x="48.28103448275862" y="137.92724137931032" width="6.895862068965517" height="6.895862068965517" rx="0"></rect>
<rect x="62.07275862068965" y="137.92724137931032" width="6.895862068965517" height="6.895862068965517" rx="0"></rect>
<rect x="117.23965517241379" y="137.92724137931032" width="6.895862068965517" height="6.895862068965517" rx="0"></rect>
<rect x="137.92724137931032" y="137.92724137931032" width="6.895862068965517" height="6.895862068965517" rx="0"></rect>
<rect x="144.82310344827584" y="137.92724137931032" width="6.895862068965517" height="6.895862068965517" rx="0"></rect>
<rect x="151.71896551724137" y="137.92724137931032" width="6.895862068965517" height="6.895862068965517" rx="0"></rect>
<rect x="158.61482758620687" y="137.92724137931032" width="6.895862068965517" height="6.895862068965517" rx="0"></rect>
<rect x="165.5106896551724" y="137.92724137931032" width="6.895862068965517" height="6.895862068965517" rx="0"></rect>
<rect x="172.40655172413793" y="137.92724137931032" width="6.895862068965517" height="6.895862068965517" rx="0"></rect>
<rect x="186.19827586206895" y="137.92724137931032" width="6.895862068965517" height="6.895862068965517" rx="0"></rect>
<rect x="55.176896551724134" y="144.82310344827584" width="6.895862068965517" height="6.895862068965517" rx="0"></rect>
<rect x="68.96862068965517" y="144.82310344827584" width="6.895862068965517" height="6.895862068965517" rx="0"></rect>
<rect x="75.8644827586207" y="144.82310344827584" width="6.895862068965517" height="6.895862068965517" rx="0"></rect>
<rect x="82.76034482758621" y="144.82310344827584" width="6.895862068965517" height="6.895862068965517" rx="0"></rect>
<rect x="103.44793103448276" y="144.82310344827584" width="6.895862068965517" height="6.895862068965517" rx="0"></rect>
<rect x="110.34379310344828" y="144.82310344827584" width="6.895862068965517" height="6.895862068965517" rx="0"></rect>
<rect x="124.1355172413793" y="144.82310344827584" width="6.895862068965517" height="6.895862068965517" rx="0"></rect>
<rect x="131.03137931034482" y="144.82310344827584" width="6.895862068965517" height="6.895862068965517" rx="0"></rect>
<rect x="137.92724137931032" y="144.82310344827584" width="6.895862068965517" height="6.895862068965517" rx="0"></rect>
<rect x="165.5106896551724" y="144.82310344827584" width="6.895862068965517" height="6.895862068965517" rx="0"></rect>
<rect x="179.30241379310343" y="144.82310344827584" width="6.895862068965517" height="6.895862068965517" rx="0"></rect>
<rect x="193.09413793103448" y="144.82310344827584" width="6.895862068965517" height="6.895862068965517" rx="0"></rect>
<rect x="68.96862068965517" y="151.71896551724137" width="6.895862068965517" height="6.895862068965517" rx="0"></rect>
<rect x="103.44793103448276" y="151.71896551724137" width="6.895862068965517" height="6.895862068965517" rx="0"></rect>
<rect x="110.34379310344828" y="151.71896551724137" width="6.895862068965517" height="6.895862068965517" rx="0"></rect>
<rect x="117.23965517241379" y="151.71896551724137" width="6.895862068965517" height="6.895862068965517" rx="0"></rect>
<rect x="131.03137931034482" y="151.71896551724137" width="6.895862068965517" height="6.895862068965517" rx="0"></rect>
<rect x="137.92724137931032" y="151.71896551724137" width="6.895862068965517" height="6.895862068965517" rx="0"></rect>
<rect x="151.71896551724137" y="151.71896551724137" width="6.895862068965517" height="6.895862068965517" rx="0"></rect>
<rect x="165.5106896551724" y="151.71896551724137" width="6.895862068965517" height="6.895862068965517" rx="0"></rect>
<rect x="193.09413793103448" y="151.71896551724137" width="6.895862068965517" height="6.895862068965517" rx="0"></rect>
<rect x="68.96862068965517" y="158.61482758620687" width="6.895862068965517" height="6.895862068965517" rx="0"></rect>
<rect x="75.8644827586207" y="158.61482758620687" width="6.895862068965517" height="6.895862068965517" rx="0"></rect>
<rect x="110.34379310344828" y="158.61482758620687" width="6.895862068965517" height="6.895862068965517" rx="0"></rect>
<rect x="117.23965517241379" y="158.61482758620687" width="6.895862068965517" height="6.895862068965517" rx="0"></rect>
<rect x="124.1355172413793" y="158.61482758620687" width="6.895862068965517" height="6.895862068965517" rx="0"></rect>
<rect x="131.03137931034482" y="158.61482758620687" width="6.895862068965517" height="6.895862068965517" rx="0"></rect>
<rect x="137.92724137931032" y="158.61482758620687" width="6.895862068965517" height="6.895862068965517" rx="0"></rect>
<rect x="165.5106896551724" y="158.61482758620687" width="6.895862068965517" height="6.895862068965517" rx="0"></rect>
<rect x="172.40655172413793" y="158.61482758620687" width="6.895862068965517" height="6.895862068965517" rx="0"></rect>
<rect x="193.09413793103448" y="158.61482758620687" width="6.895862068965517" height="6.895862068965517" rx="0"></rect>
<rect x="55.176896551724134" y="165.5106896551724" width="6.895862068965517" height="6.895862068965517" rx="0"></rect>
<rect x="75.8644827586207" y="165.5106896551724" width="6.895862068965517" height="6.895862068965517" rx="0"></rect>
<rect x="96.55206896551725" y="165.5106896551724" width="6.895862068965517" height="6.895862068965517" rx="0"></rect>
<rect x="124.1355172413793" y="165.5106896551724" width="6.895862068965517" height="6.895862068965517" rx="0"></rect>
<rect x="131.03137931034482" y="165.5106896551724" width="6.895862068965517" height="6.895862068965517" rx="0"></rect>
<rect x="137.92724137931032" y="165.5106896551724" width="6.895862068965517" height="6.895862068965517" rx="0"></rect>
<rect x="144.82310344827584" y="165.5106896551724" width="6.895862068965517" height="6.895862068965517" rx="0"></rect>
<rect x="151.71896551724137" y="165.5106896551724" width="6.895862068965517" height="6.895862068965517" rx="0"></rect>
<rect x="158.61482758620687" y="165.5106896551724" width="6.895862068965517" height="6.895862068965517" rx="0"></rect>
<rect x="165.5106896551724" y="165.5106896551724" width="6.895862068965517" height="6.895862068965517" rx="0"></rect>
<rect x="186.19827586206895" y="165.5106896551724" width="6.895862068965517" height="6.895862068965517" rx="0"></rect>
<rect x="62.07275862068965" y="172.40655172413793" width="6.895862068965517" height="6.895862068965517" rx="0"></rect>
<rect x="75.8644827586207" y="172.40655172413793" width="6.895862068965517" height="6.895862068965517" rx="0"></rect>
<rect x="82.76034482758621" y="172.40655172413793" width="6.895862068965517" height="6.895862068965517" rx="0"></rect>
<rect x="89.65620689655172" y="172.40655172413793" width="6.895862068965517" height="6.895862068965517" rx="0"></rect>
<rect x="110.34379310344828" y="172.40655172413793" width="6.895862068965517" height="6.895862068965517" rx="0"></rect>
<rect x="117.23965517241379" y="172.40655172413793" width="6.895862068965517" height="6.895862068965517" rx="0"></rect>
<rect x="158.61482758620687" y="172.40655172413793" width="6.895862068965517" height="6.895862068965517" rx="0"></rect>
<rect x="172.40655172413793" y="172.40655172413793" width="6.895862068965517" height="6.895862068965517" rx="0"></rect>
<rect x="179.30241379310343" y="172.40655172413793" width="6.895862068965517" height="6.895862068965517" rx="0"></rect>
<rect x="186.19827586206895" y="172.40655172413793" width="6.895862068965517" height="6.895862068965517" rx="0"></rect>
<rect x="68.96862068965517" y="179.30241379310343" width="6.895862068965517" height="6.895862068965517" rx="0"></rect>
<rect x="89.65620689655172" y="179.30241379310343" width="6.895862068965517" height="6.895862068965517" rx="0"></rect>
<rect x="96.55206896551725" y="179.30241379310343" width="6.895862068965517" height="6.895862068965517" rx="0"></rect>
<rect x="110.34379310344828" y="179.30241379310343" width="6.895862068965517" height="6.895862068965517" rx="0"></rect>
<rect x="124.1355172413793" y="179.30241379310343" width="6.895862068965517" height="6.895862068965517" rx="0"></rect>
<rect x="131.03137931034482" y="179.30241379310343" width="6.895862068965517" height="6.895862068965517" rx="0"></rect>
<rect x="137.92724137931032" y="179.30241379310343" width="6.895862068965517" height="6.895862068965517" rx="0"></rect>
<rect x="144.82310344827584" y="179.30241379310343" width="6.895862068965517" height="6.895862068965517" rx="0"></rect>
<rect x="172.40655172413793" y="179.30241379310343" width="6.895862068965517" height="6.895862068965517" rx="0"></rect>
<rect x="179.30241379310343" y="179.30241379310343" width="6.895862068965517" height="6.895862068965517" rx="0"></rect>
<rect x="186.19827586206895" y="179.30241379310343" width="6.895862068965517" height="6.895862068965517" rx="0"></rect>
<rect x="193.09413793103448" y="179.30241379310343" width="6.895862068965517" height="6.895862068965517" rx="0"></rect>
<rect x="55.176896551724134" y="186.19827586206895" width="6.895862068965517" height="6.895862068965517" rx="0"></rect>
<rect x="68.96862068965517" y="186.19827586206895" width="6.895862068965517" height="6.895862068965517" rx="0"></rect>
<rect x="75.8644827586207" y="186.19827586206895" width="6.895862068965517" height="6.895862068965517" rx="0"></rect>
<rect x="82.76034482758621" y="186.19827586206895" width="6.895862068965517" height="6.895862068965517" rx="0"></rect>
<rect x="89.65620689655172" y="186.19827586206895" width="6.895862068965517" height="6.895862068965517" rx="0"></rect>
<rect x="117.23965517241379" y="186.19827586206895" width="6.895862068965517" height="6.895862068965517" rx="0"></rect>
<rect x="124.1355172413793" y="186.19827586206895" width="6.895862068965517" height="6.895862068965517" rx="0"></rect>
<rect x="131.03137931034482" y="186.19827586206895" width="6.895862068965517" height="6.895862068965517" rx="0"></rect>
<rect x="144.82310344827584" y="186.19827586206895" width="6.895862068965517" height="6.895862068965517" rx="0"></rect>
<rect x="151.71896551724137" y="186.19827586206895" width="6.895862068965517" height="6.895862068965517" rx="0"></rect>
<rect x="158.61482758620687" y="186.19827586206895" width="6.895862068965517" height="6.895862068965517" rx="0"></rect>
<rect x="172.40655172413793" y="186.19827586206895" width="6.895862068965517" height="6.895862068965517" rx="0"></rect>
<rect x="186.19827586206895" y="186.19827586206895" width="6.895862068965517" height="6.895862068965517" rx="0"></rect>
<rect x="193.09413793103448" y="186.19827586206895" width="6.895862068965517" height="6.895862068965517" rx="0"></rect>
<rect x="62.07275862068965" y="193.09413793103448" width="6.895862068965517" height="6.895862068965517" rx="0"></rect>
<rect x="82.76034482758621" y="193.09413793103448" width="6.895862068965517" height="6.895862068965517" rx="0"></rect>
<rect x="89.65620689655172" y="193.09413793103448" width="6.895862068965517" height="6.895862068965517" rx="0"></rect>
<rect x="103.44793103448276" y="193.09413793103448" width="6.895862068965517" height="6.895862068965517" rx="0"></rect>
<rect x="110.34379310344828" y="193.09413793103448" width="6.895862068965517" height="6.895862068965517" rx="0"></rect>
<rect x="117.23965517241379" y="193.09413793103448" width="6.895862068965517" height="6.895862068965517" rx="0"></rect>
<rect x="131.03137931034482" y="193.09413793103448" width="6.895862068965517" height="6.895862068965517" rx="0"></rect>
<rect x="137.92724137931032" y="193.09413793103448" width="6.895862068965517" height="6.895862068965517" rx="0"></rect>
<rect x="144.82310344827584" y="193.09413793103448" width="6.895862068965517" height="6.895862068965517" rx="0"></rect>
<rect x="165.5106896551724" y="193.09413793103448" width="6.895862068965517" height="6.895862068965517" rx="0"></rect>
<rect x="172.40655172413793" y="193.09413793103448" width="6.895862068965517" height="6.895862068965517" rx="0"></rect>
<rect x="186.19827586206895" y="193.09413793103448" width="6.895862068965517" height="6.895862068965517" rx="0"></rect>
</g>
<g>
<rect x="3.4479310344827585" y="3.4479310344827585" width="41.3751724137931" fill="none" height="41.3751724137931" stroke-width="6.895862068965517" stroke="#222222"></rect>
<rect x="13.791724137931034" y="13.791724137931034" width="20.68758620689655" fill="#222222" height="20.68758620689655"></rect>
<rect x="155.17689655172413" y="3.4479310344827585" width="41.3751724137931" fill="none" height="41.3751724137931" stroke-width="6.895862068965517" stroke="#222222"></rect>
<rect x="165.52068965517242" y="13.791724137931034" width="20.68758620689655" fill="#222222" height="20.68758620689655"></rect>
<rect x="3.4479310344827585" y="155.17689655172413" width="41.3751724137931" fill="none" height="41.3751724137931" stroke-width="6.895862068965517" stroke="#222222"></rect>
<rect x="13.791724137931034" y="165.52068965517242" width="20.68758620689655" fill="#222222" height="20.68758620689655"></rect>
</g>
</g>
</svg>